<svg xmlns="http://www.w3.org/2000/svg" viewBox="0 0 292 89"><defs><style>@font-face {
    font-family: Triton;
    src: url('../fonts/Triton.ttf');
}.cls-1{fill:#d0d0d0;}.cls-2,.cls-3,.cls-6{fill:#0c0c0c;}.cls-3{font-size:48.22px;letter-spacing:0.01em;}.cls-3,.cls-6{font-family:Triton;}.cls-4{letter-spacing:0.02em;}.cls-5{letter-spacing:0.01em;}.cls-6{font-size:9.92px;letter-spacing:0.01em;}</style></defs><g id="Layer_2" data-name="Layer 2"><g id="bg"><g id="Layer_3" data-name="Layer 3"><rect class="cls-1" width="292" height="89"/></g></g><g id="Layer_2-2" data-name="Layer 2"><path class="cls-2" d="M54.38,28.08a5.54,5.54,0,1,0-5.53-5.54A5.54,5.54,0,0,0,54.38,28.08ZM36.12,53.63l-1.71,4H26.69a3.7,3.7,0,0,0,0,7.39h8.94a5.53,5.53,0,0,0,5.09-3.36l1-2.37-1.23-.72a10.94,10.94,0,0,1-4.38-4.92ZM67.31,42.85H62.23l-3-6.15a11.08,11.08,0,0,0-7.13-5.88l-8.2-2.44a11.06,11.06,0,0,0-9.33,2L30,33.87a3.69,3.69,0,1,0,4.49,5.86l4.58-3.51A3.6,3.6,0,0,1,42,35.51l1.7.51L39.35,46.1a7.41,7.41,0,0,0,3,9.27l9.81,5.79L49,71.28a3.68,3.68,0,0,0,2.42,4.62,3.55,3.55,0,0,0,1.1.17,3.69,3.69,0,0,0,3.52-2.59l3.66-11.66a5.56,5.56,0,0,0-2.5-6.27l-7.07-4.17,3.62-9,2.33,4.78a5.6,5.6,0,0,0,5,3.1h6.23a3.7,3.7,0,0,0,0-7.39Z"/><text class="cls-3" transform="translate(75.14 71.82)">akti<tspan class="cls-4" x="117.6" y="0">v</tspan><tspan class="cls-5" x="153.48" y="0">o</tspan></text><text class="cls-6" transform="translate(257.41 23.65)">tm</text></g></g></svg>