<?xml version="1.0" encoding="utf-8"?>
<!-- Generator: Adobe Illustrator 24.1.2, SVG Export Plug-In . SVG Version: 6.00 Build 0)  -->
<svg version="1.1" id="Layer_1" xmlns="http://www.w3.org/2000/svg" xmlns:xlink="http://www.w3.org/1999/xlink" x="0px" y="0px"
	 viewBox="0 0 292 91" style="enable-background:new 0 0 292 91;" xml:space="preserve">
<style type="text/css">
	.st0{fill:#954E07;}
	.st1{fill:#FFFFFF;}
	.st2{enable-background:new    ;}
</style>
<g>
	<g id="Layer_2_1_">
		<g id="bg">
			<g id="Layer_3">
				<rect class="st0" width="292" height="89"/>
			</g>
		</g>
		<g id="Layer_2-2">
			
				<image style="overflow:visible;opacity:0.75;enable-background:new    ;" width="262" height="82" xlink:href="BB77C1F8.png"  transform="matrix(1 0 0 1 19 9)">
			</image>
			<path class="st1" d="M54.4,28.1c3.1,0,5.5-2.5,5.5-5.5S57.5,17,54.4,17c-3.1,0-5.5,2.5-5.5,5.5c0,0,0,0,0,0
				C48.8,25.6,51.3,28.1,54.4,28.1z M36.1,53.6l-1.7,4h-7.7c-2,0.1-3.6,1.8-3.5,3.9c0.1,1.9,1.6,3.4,3.5,3.5h8.9
				c2.2,0,4.2-1.3,5.1-3.4l1-2.4l-1.2-0.7C38.6,57.4,37,55.7,36.1,53.6L36.1,53.6z M67.3,42.8h-5.1l-3-6.2c-1.4-2.9-4-5.1-7.1-5.9
				l-8.2-2.4c-3.3-0.8-6.7,0-9.3,2L30,33.9c-1.6,1.2-1.9,3.6-0.7,5.2s3.6,1.9,5.2,0.7l4.6-3.5c0.8-0.7,1.9-0.9,2.9-0.7l1.7,0.5
				l-4.4,10.1c-1.5,3.4-0.2,7.4,3,9.3l9.8,5.8L49,71.3c-0.6,1.9,0.5,4,2.4,4.6c0,0,0,0,0,0c0.4,0.1,0.7,0.2,1.1,0.2
				c1.6,0,3-1,3.5-2.6l3.7-11.7c0.7-2.4-0.3-5-2.5-6.3l-7.1-4.2l3.6-9l2.3,4.8c0.9,1.9,2.9,3.1,5,3.1h6.2c2-0.1,3.6-1.8,3.5-3.9
				C70.7,44.5,69.2,43,67.3,42.8L67.3,42.8z"/>
			<g class="st2">
				<path class="st1" d="M96.4,23.6c1,0,1.9,0.2,2.8,0.6c0.9,0.4,1.6,0.9,2.3,1.5c0.6,0.6,1.2,1.4,1.5,2.3c0.4,0.9,0.6,1.8,0.6,2.8
					v41h-8.4V53.2h-9v18.7h-8.4V25.6l-2.7-2H96.4z M95.2,45.8V32.2c0-0.4-0.1-0.7-0.4-0.9c-0.3-0.3-0.6-0.4-0.9-0.4h-7.7v14.9H95.2z
					"/>
				<path class="st1" d="M139.6,71.8h-11.2h0V52c0-0.4-0.1-0.7-0.4-0.9c-0.3-0.3-0.6-0.4-0.9-0.4h-7.8v21.2h-11.1l2.7-2V25.6l-2.7-2
					h11.1v19.7h2.8l6-19.7h8.7l-6.1,19.8c0.9,0.2,1.7,0.5,2.4,0.9c0.7,0.4,1.4,0.9,1.9,1.6c0.5,0.6,1,1.3,1.3,2.1
					c0.3,0.8,0.5,1.7,0.5,2.6v19.2L139.6,71.8z"/>
				<path class="st1" d="M169.8,23.6v9.3l-1.5-2h-7.2v40.9h-8.4V30.9h-7l-1.5,2v-9.3H169.8z"/>
				<path class="st1" d="M188.3,71.8H177V25.6l-2.7-2h11.1v46.1L188.3,71.8z"/>
			</g>
			<g class="st2">
				<path class="st1" d="M215.2,71.8h-5.4c-0.8,0-1.6-0.1-2.4-0.4c-0.8-0.3-1.5-0.7-2.1-1.2c-0.6-0.5-1.2-1.1-1.6-1.8
					c-0.4-0.7-0.7-1.4-0.9-2.3l-7.3-40.6l-2.7-2h11.1l6.2,36.1l5.6-36.1h8L215.2,71.8z"/>
			</g>
			<g class="st2">
				<path class="st1" d="M257.1,71.8h-18.6c-1,0-1.9-0.2-2.8-0.6s-1.6-0.9-2.3-1.5c-0.7-0.6-1.2-1.4-1.5-2.3
					c-0.4-0.9-0.6-1.8-0.6-2.8V25.5l-2.7-1.9h21.3c1,0,1.9,0.2,2.8,0.6c0.9,0.4,1.6,0.9,2.3,1.5c0.6,0.6,1.2,1.4,1.5,2.3
					c0.4,0.9,0.6,1.8,0.6,2.8L257.1,71.8z M248.7,32.2c0-0.4-0.1-0.7-0.4-0.9c-0.3-0.3-0.6-0.4-0.9-0.4h-7.7h0v32.3
					c0,0.4,0.1,0.7,0.4,0.9c0.3,0.3,0.6,0.4,0.9,0.4h7.7L248.7,32.2z"/>
			</g>
			<g class="st2">
				<path class="st1" d="M262.7,13.7v1.9l-0.3-0.4h-1.5v8.4h-1.7v-8.4h-1.4l-0.3,0.4v-1.9H262.7z"/>
				<path class="st1" d="M272.1,13.7l-0.6,0.4v9.5h-1.7v-7.2l-1.9,3.6l-1.9-3.6v7.2h-1.7v-9.5l-0.6-0.4h2.3l1.9,3.3l1.9-3.3H272.1z"
					/>
			</g>
		</g>
	</g>
</g>
</svg>
